<svg id="Layer_1" data-name="Layer 1" xmlns="http://www.w3.org/2000/svg" viewBox="0 0 190 32"><defs><style>.cls-1{fill:#fff;}</style></defs><path class="cls-1" d="M178.23,25.66a5.52,5.52,0,0,1,.41-2.15,5.14,5.14,0,0,1,2.87-2.87,5.52,5.52,0,0,1,2.15-.41,5.25,5.25,0,0,1,2.08.41,5.4,5.4,0,0,1,1.7,1.14,5,5,0,0,1,1.14,1.73,5.53,5.53,0,0,1,.42,2.15,5.18,5.18,0,0,1-.42,2.1,5.34,5.34,0,0,1-2.84,2.82,5.26,5.26,0,0,1-2.08.42,5.53,5.53,0,0,1-2.15-.42,5,5,0,0,1-1.73-1.14,5.43,5.43,0,0,1-1.14-1.68A5.18,5.18,0,0,1,178.23,25.66Z"/><path class="cls-1" d="M1.32,24.38H16a3.19,3.19,0,0,0,2.11-.66,2.36,2.36,0,0,0,0-3.51A3.19,3.19,0,0,0,16,19.55H9.87a10.25,10.25,0,0,1-3.75-.65,8.48,8.48,0,0,1-2.89-1.85,8.19,8.19,0,0,1-1.86-2.86,10,10,0,0,1-.66-3.7,9.53,9.53,0,0,1,.66-3.62A7.86,7.86,0,0,1,3.23,4.09,8.18,8.18,0,0,1,6.12,2.31a10.69,10.69,0,0,1,3.75-.63h15V8.3H11.51A3.19,3.19,0,0,0,9.4,9a2.2,2.2,0,0,0-.79,1.75,2.2,2.2,0,0,0,.79,1.76,3.19,3.19,0,0,0,2.11.66h5.21a12.57,12.57,0,0,1,4.14.65,9.36,9.36,0,0,1,3.19,1.85,8.36,8.36,0,0,1,2,2.86,9.28,9.28,0,0,1,.72,3.7,8.83,8.83,0,0,1-.72,3.62,8.05,8.05,0,0,1-2,2.78,9.08,9.08,0,0,1-3.19,1.78,12.85,12.85,0,0,1-4.14.63H1.32Z"/><path class="cls-1" d="M57.1,31H49.19V24.47H38.13V31H30.22V14.15a13.82,13.82,0,0,1,1-5.3A12.09,12.09,0,0,1,34,4.7,12.46,12.46,0,0,1,38.19,2,16,16,0,0,1,49.12,2a12.51,12.51,0,0,1,4.25,2.7,12.21,12.21,0,0,1,2.74,4.15,13.82,13.82,0,0,1,1,5.3ZM49.19,17.85V13.51a6.73,6.73,0,0,0-.37-2.2,6,6,0,0,0-1.06-1.87A5.18,5.18,0,0,0,46,8.14a6.14,6.14,0,0,0-4.76,0,5,5,0,0,0-1.72,1.3,5.85,5.85,0,0,0-1.06,1.87,6.47,6.47,0,0,0-.37,2.2v4.34Z"/><path class="cls-1" d="M70.23,23.85a1.9,1.9,0,0,0,1.4.53H86.25V31H68.86A7.94,7.94,0,0,1,66,30.49a6.41,6.41,0,0,1-2.22-1.44,6.49,6.49,0,0,1-1.43-2.21,7.94,7.94,0,0,1-.51-2.91V1.68H69.7V22.45A1.88,1.88,0,0,0,70.23,23.85Z"/><path class="cls-1" d="M116.06,31h-7.91V24.47H97.09V31H89.18V14.15a13.82,13.82,0,0,1,1-5.3A12.09,12.09,0,0,1,92.91,4.7,12.46,12.46,0,0,1,97.15,2a16,16,0,0,1,10.93,0,12.51,12.51,0,0,1,4.25,2.7,12.39,12.39,0,0,1,2.75,4.15,14,14,0,0,1,1,5.3Zm-7.91-13.15V13.51a6.73,6.73,0,0,0-.37-2.2,6,6,0,0,0-1.06-1.87A5.08,5.08,0,0,0,105,8.14a6.14,6.14,0,0,0-4.76,0,5,5,0,0,0-1.72,1.3,5.85,5.85,0,0,0-1.06,1.87,6.47,6.47,0,0,0-.37,2.2v4.34Z"/><path class="cls-1" d="M132.55,1.68a18.49,18.49,0,0,1,6.47,1,12.12,12.12,0,0,1,7.46,7.61,17.83,17.83,0,0,1,1,6,17.83,17.83,0,0,1-1,6A12.12,12.12,0,0,1,139,30a18.49,18.49,0,0,1-6.47,1h-4.73a7.94,7.94,0,0,1-2.91-.51,6.41,6.41,0,0,1-2.22-1.44,6.49,6.49,0,0,1-1.43-2.21,7.94,7.94,0,0,1-.51-2.91V1.68Zm-3.89,22a.71.71,0,0,0,.8.81h1.22a10,10,0,0,0,6.53-1.93q2.31-1.93,2.31-6.24t-2.31-6.22a9.84,9.84,0,0,0-6.53-1.95h-2Z"/><path class="cls-1" d="M159.2,31V21.39a10.76,10.76,0,0,1-5.39-4,23.79,23.79,0,0,1-3.45-7.26l-2.57-8.49H156l2.25,7.84a17.86,17.86,0,0,0,.75,2.17,9,9,0,0,0,1,1.87,5,5,0,0,0,1.37,1.32,3.13,3.13,0,0,0,1.73.5,3.16,3.16,0,0,0,1.74-.5,5,5,0,0,0,1.36-1.32,9,9,0,0,0,1-1.87A19.77,19.77,0,0,0,168,9.52l2.25-7.84h8.23L176,10.17a23.57,23.57,0,0,1-3.46,7.26,10.73,10.73,0,0,1-5.38,4V31Z"/></svg>