<svg id="Layer_1" data-name="Layer 1" xmlns="http://www.w3.org/2000/svg" viewBox="0 0 190 32"><defs><style>.cls-1{fill:#ef4e4f;}.cls-2{fill:#008279;}</style></defs><path class="cls-1" d="M178.23,25.64a5.52,5.52,0,0,1,.41-2.15,5.14,5.14,0,0,1,2.87-2.87,5.71,5.71,0,0,1,2.15-.41,5.29,5.29,0,0,1,3.78,1.55,5,5,0,0,1,1.14,1.73,5.53,5.53,0,0,1,.42,2.15,5.18,5.18,0,0,1-.42,2.1A5.35,5.35,0,0,1,183.66,31a5.53,5.53,0,0,1-2.15-.42,5.14,5.14,0,0,1-1.73-1.13,5.59,5.59,0,0,1-1.14-1.69A5.18,5.18,0,0,1,178.23,25.64Z"/><path class="cls-2" d="M1.32,24.36H16a3.19,3.19,0,0,0,2.11-.66,2.35,2.35,0,0,0,0-3.5A3.19,3.19,0,0,0,16,19.54H9.87a10.25,10.25,0,0,1-3.75-.66A8.48,8.48,0,0,1,3.23,17a8.09,8.09,0,0,1-1.86-2.86,10,10,0,0,1-.66-3.7,9.56,9.56,0,0,1,.66-3.62A7.86,7.86,0,0,1,3.23,4.07,8.33,8.33,0,0,1,6.12,2.29a10.69,10.69,0,0,1,3.75-.63h15V8.28H11.51a3.19,3.19,0,0,0-2.11.66,2.2,2.2,0,0,0-.79,1.76,2.2,2.2,0,0,0,.79,1.75,3.19,3.19,0,0,0,2.11.66h5.21a12.31,12.31,0,0,1,4.14.66,9.19,9.19,0,0,1,3.19,1.84,8.31,8.31,0,0,1,2,2.87,9.2,9.2,0,0,1,.72,3.69,8.83,8.83,0,0,1-.72,3.62,8.05,8.05,0,0,1-2,2.78,9.08,9.08,0,0,1-3.19,1.78,12.85,12.85,0,0,1-4.14.63H1.32Z"/><path class="cls-2" d="M57.1,31H49.19V24.46H38.13V31H30.22V14.14a13.87,13.87,0,0,1,1-5.31A12.09,12.09,0,0,1,34,4.68,12.61,12.61,0,0,1,38.19,2,16,16,0,0,1,49.12,2a12.66,12.66,0,0,1,4.25,2.7,12.21,12.21,0,0,1,2.74,4.15,13.87,13.87,0,0,1,1,5.31ZM49.19,17.83V13.49a6.73,6.73,0,0,0-.37-2.2,5.89,5.89,0,0,0-1.06-1.86A5.21,5.21,0,0,0,46,8.12a6.14,6.14,0,0,0-4.76,0,5,5,0,0,0-1.72,1.31,5.7,5.7,0,0,0-1.06,1.86,6.47,6.47,0,0,0-.37,2.2v4.34Z"/><path class="cls-2" d="M70.23,23.83a1.9,1.9,0,0,0,1.4.53H86.25V31H68.86A7.94,7.94,0,0,1,66,30.47a6.24,6.24,0,0,1-3.65-3.65,7.94,7.94,0,0,1-.51-2.91V1.66H69.7V22.43A1.88,1.88,0,0,0,70.23,23.83Z"/><path class="cls-2" d="M116.06,31h-7.91V24.46H97.09V31H89.18V14.14a13.87,13.87,0,0,1,1-5.31,12.09,12.09,0,0,1,2.75-4.15A12.61,12.61,0,0,1,97.15,2a16,16,0,0,1,10.93,0,12.66,12.66,0,0,1,4.25,2.7,12.39,12.39,0,0,1,2.75,4.15,14.06,14.06,0,0,1,1,5.31Zm-7.91-13.15V13.49a6.73,6.73,0,0,0-.37-2.2,5.89,5.89,0,0,0-1.06-1.86A5.11,5.11,0,0,0,105,8.12a6.14,6.14,0,0,0-4.76,0,5,5,0,0,0-1.72,1.31,5.7,5.7,0,0,0-1.06,1.86,6.47,6.47,0,0,0-.37,2.2v4.34Z"/><path class="cls-2" d="M132.55,1.66A18.25,18.25,0,0,1,139,2.71a12.24,12.24,0,0,1,4.65,3,12.58,12.58,0,0,1,2.81,4.63,17.83,17.83,0,0,1,1,6,17.83,17.83,0,0,1-1,6A12.12,12.12,0,0,1,139,29.94a18.49,18.49,0,0,1-6.47,1h-4.73a7.94,7.94,0,0,1-2.91-.51,6.24,6.24,0,0,1-3.65-3.65,7.94,7.94,0,0,1-.51-2.91V1.66Zm-3.89,22a.71.71,0,0,0,.8.81h1.22a10,10,0,0,0,6.53-1.93q2.31-1.93,2.31-6.24t-2.31-6.22a9.84,9.84,0,0,0-6.53-1.94h-2Z"/><path class="cls-2" d="M159.2,31V21.37a10.76,10.76,0,0,1-5.39-4,23.68,23.68,0,0,1-3.45-7.26l-2.57-8.49H156l2.25,7.85a19.13,19.13,0,0,0,.75,2.17,9.21,9.21,0,0,0,1,1.86,5,5,0,0,0,1.37,1.32,3.13,3.13,0,0,0,1.73.5,3.16,3.16,0,0,0,1.74-.5,5,5,0,0,0,1.36-1.32,9.21,9.21,0,0,0,1-1.86A21.35,21.35,0,0,0,168,9.51l2.25-7.85h8.23L176,10.15a23.46,23.46,0,0,1-3.46,7.26,10.73,10.73,0,0,1-5.38,4V31Z"/></svg>