<svg width="16" height="16" viewBox="0 0 16 16" fill="none" xmlns="http://www.w3.org/2000/svg">
<path d="M10.0463 7.62856L3.72119 6.51428V14.748C3.72112 14.8375 3.73871 14.9261 3.77295 15.0088C3.8072 15.0914 3.85743 15.1665 3.92076 15.2298C3.98409 15.293 4.05928 15.3431 4.14202 15.3772C4.22476 15.4113 4.31341 15.4288 4.4029 15.4285H15.3171C15.4067 15.4289 15.4955 15.4116 15.5784 15.3775C15.6613 15.3435 15.7366 15.2934 15.8 15.2302C15.8635 15.1669 15.9138 15.0918 15.9481 15.009C15.9825 14.9263 16.0001 14.8376 16 14.748V11.7143L10.0463 7.62856Z" fill="#185C37"/>
<path d="M10.0463 0.571474H4.4029C4.31341 0.571249 4.22476 0.58869 4.14202 0.622798C4.05928 0.656905 3.98409 0.707009 3.92076 0.770236C3.85743 0.833462 3.8072 0.908568 3.77295 0.991247C3.73871 1.07393 3.72112 1.16255 3.72119 1.25204V4.28575L10.0463 8.00002L13.3954 9.1143L16 8.00002V4.28575L10.0463 0.571474Z" fill="#21A366"/>
<path d="M3.72119 4.28571H10.0463V7.99998H3.72119V4.28571Z" fill="#107C41"/>
<path opacity="0.1" d="M8.24803 3.54285H3.72119V12.8285H8.24803C8.42841 12.8276 8.60117 12.7557 8.72888 12.6283C8.85659 12.5009 8.92896 12.3283 8.93032 12.148V4.22342C8.92896 4.04304 8.85659 3.87046 8.72888 3.74307C8.60117 3.61568 8.42841 3.54374 8.24803 3.54285Z" fill="black"/>
<path opacity="0.2" d="M7.87603 3.91431H3.72119V13.2H7.87603C8.05641 13.1991 8.22918 13.1272 8.35689 12.9998C8.4846 12.8724 8.55697 12.6998 8.55832 12.5194V4.59488C8.55697 4.4145 8.4846 4.24192 8.35689 4.11453C8.22918 3.98714 8.05641 3.9152 7.87603 3.91431Z" fill="black"/>
<path opacity="0.2" d="M7.87603 3.91431H3.72119V12.4571H7.87603C8.05641 12.4562 8.22918 12.3843 8.35689 12.2569C8.4846 12.1295 8.55697 11.9569 8.55832 11.7766V4.59488C8.55697 4.4145 8.4846 4.24192 8.35689 4.11453C8.22918 3.98714 8.05641 3.9152 7.87603 3.91431Z" fill="black"/>
<path opacity="0.2" d="M7.50403 3.91431H3.72119V12.4571H7.50403C7.68441 12.4562 7.85718 12.3843 7.98489 12.2569C8.1126 12.1295 8.18497 11.9569 8.18632 11.7766V4.59488C8.18497 4.4145 8.1126 4.24192 7.98489 4.11453C7.85718 3.98714 7.68441 3.9152 7.50403 3.91431Z" fill="black"/>
<path d="M0.682283 3.91431H7.50397C7.68467 3.91416 7.85804 3.98576 7.98598 4.11337C8.11392 4.24099 8.18595 4.41418 8.18626 4.59488V11.4051C8.18595 11.5858 8.11392 11.759 7.98598 11.8866C7.85804 12.0143 7.68467 12.0859 7.50397 12.0857H0.682283C0.592745 12.086 0.504028 12.0686 0.421225 12.0346C0.338423 12.0005 0.263165 11.9504 0.199772 11.8871C0.136378 11.8239 0.0860976 11.7488 0.0518154 11.6661C0.0175331 11.5834 -7.55057e-05 11.4947 2.43357e-07 11.4051V4.59488C-7.55057e-05 4.50534 0.0175331 4.41667 0.0518154 4.33395C0.0860976 4.25123 0.136378 4.1761 0.199772 4.11287C0.263165 4.04963 0.338423 3.99954 0.421225 3.96547C0.504028 3.93139 0.592745 3.91401 0.682283 3.91431Z" fill="url(#paint0_linear_25_212)"/>
<path d="M2.11426 10.2131L3.54911 7.99371L2.23483 5.78687H3.29025L4.00739 7.2C4.07368 7.33372 4.12168 7.43314 4.14339 7.49943H4.15311C4.19996 7.39238 4.24949 7.28838 4.30168 7.18743L5.06853 5.78915H6.03996L4.69196 7.98343L6.07424 10.2148H5.04053L4.21196 8.66571C4.1736 8.59905 4.14092 8.52928 4.11425 8.45714H4.10054C4.07632 8.52745 4.04411 8.59475 4.00454 8.65771L3.1514 10.2131H2.11426Z" fill="white"/>
<path d="M15.3178 0.571476H10.0464V4.28575H16.0001V1.25204C16.0002 1.16251 15.9825 1.07383 15.9483 0.991116C15.914 0.9084 15.8637 0.833269 15.8003 0.770034C15.7369 0.7068 15.6617 0.656708 15.5789 0.622634C15.4961 0.58856 15.4073 0.571175 15.3178 0.571476Z" fill="#33C481"/>
<path d="M10.0464 8H16.0001V11.7143H10.0464V8Z" fill="#107C41"/>
<defs>
<linearGradient id="paint0_linear_25_212" x1="1.42514" y1="3.37946" x2="6.76112" y2="12.6206" gradientUnits="userSpaceOnUse">
<stop stop-color="#18884F"/>
<stop offset="0.5" stop-color="#117E43"/>
<stop offset="1" stop-color="#0B6631"/>
</linearGradient>
</defs>
</svg>
