<svg width="16" height="16" viewBox="0 0 16 16" fill="none" xmlns="http://www.w3.org/2000/svg">
<path d="M5.66667 16C7.14264 16 8.33333 14.8093 8.33333 13.3334V10.6667H5.66667C4.1907 10.6667 3 11.8574 3 13.3334C3 14.8093 4.1907 16 5.66667 16Z" fill="#0ACF83"/>
<path d="M3 8.00001C3 6.52404 4.1907 5.33334 5.66667 5.33334H8.33333V10.6667H5.66667C4.1907 10.6667 3 9.47598 3 8.00001Z" fill="#A259FF"/>
<path d="M3 2.66667C3 1.1907 4.1907 0 5.66667 0H8.33333V5.33333H5.66667C4.1907 5.33333 3 4.14264 3 2.66667Z" fill="#F24E1E"/>
<path d="M8.3335 0H11.0002C12.4761 0 13.6668 1.1907 13.6668 2.66667C13.6668 4.14264 12.4761 5.33333 11.0002 5.33333H8.3335V0Z" fill="#FF7262"/>
<path d="M13.6668 8.00001C13.6668 9.47598 12.4761 10.6667 11.0002 10.6667C9.52419 10.6667 8.3335 9.47598 8.3335 8.00001C8.3335 6.52404 9.52419 5.33334 11.0002 5.33334C12.4761 5.33334 13.6668 6.52404 13.6668 8.00001Z" fill="#1ABCFE"/>
</svg>
