<svg width="16" height="16" viewBox="0 0 16 16" fill="none" xmlns="http://www.w3.org/2000/svg">
<path d="M11.1998 0L15.1998 3.99999V15.1944C15.2005 15.2994 15.1805 15.4036 15.141 15.5009C15.1015 15.5983 15.0432 15.6869 14.9694 15.7617C14.8957 15.8365 14.8079 15.896 14.7111 15.9369C14.6143 15.9778 14.5104 15.9992 14.4054 16H1.5942C1.38411 15.9985 1.18302 15.9144 1.03438 15.7659C0.885739 15.6175 0.80148 15.4165 0.799805 15.2064V0.793598C0.799805 0.355199 1.1574 0 1.599 0H11.1998ZM11.1998 5.33359H4.79979V4.26639H7.46619V3.19999H8.53338L8.53258 4.26639H10.399L10.3998 1.6H2.3998V14.4H13.5998V4.79999L11.1998 4.79919V5.33359ZM5.86619 10.1336V11.7328H11.1998V12.8H4.79979V10.1336H5.86619ZM7.99979 9.86637C8.10484 9.86637 8.20887 9.88707 8.30593 9.92727C8.40299 9.96747 8.49118 10.0264 8.56547 10.1007C8.63976 10.175 8.69868 10.2632 8.73889 10.3602C8.77909 10.4573 8.79978 10.5613 8.79978 10.6664C8.79978 10.7714 8.77909 10.8755 8.73889 10.9725C8.69868 11.0696 8.63976 11.1578 8.56547 11.2321C8.49118 11.3063 8.40299 11.3653 8.30593 11.4055C8.20887 11.4457 8.10484 11.4664 7.99979 11.4664C7.78761 11.4664 7.58413 11.3821 7.4341 11.2321C7.28407 11.082 7.19979 10.8785 7.19979 10.6664C7.19979 10.4542 7.28407 10.2507 7.4341 10.1007C7.58413 9.95066 7.78761 9.86637 7.99979 9.86637ZM7.99979 5.59999C8.53022 5.59999 9.03892 5.8107 9.414 6.18577C9.78907 6.56084 9.99978 7.06955 9.99978 7.59998C9.99978 8.13041 9.78907 8.63912 9.414 9.01419C9.03892 9.38926 8.53022 9.59998 7.99979 9.59998C7.46935 9.59998 6.96065 9.38926 6.58558 9.01419C6.2105 8.63912 5.99979 8.13041 5.99979 7.59998C5.99979 7.06955 6.2105 6.56084 6.58558 6.18577C6.96065 5.8107 7.46935 5.59999 7.99979 5.59999ZM7.99979 6.66638C7.75218 6.66638 7.51472 6.76474 7.33963 6.93983C7.16455 7.11491 7.06619 7.35237 7.06619 7.59998C7.06619 7.84759 7.16455 8.08505 7.33963 8.26013C7.51472 8.43522 7.75218 8.53358 7.99979 8.53358C8.24739 8.53358 8.48486 8.43522 8.65994 8.26013C8.83502 8.08505 8.93338 7.84759 8.93338 7.59998C8.93338 7.35237 8.83502 7.11491 8.65994 6.93983C8.48486 6.76474 8.24739 6.66638 7.99979 6.66638Z" fill="white"/>
</svg>
