<svg width="16" height="16" viewBox="0 0 16 16" fill="none" xmlns="http://www.w3.org/2000/svg">
<path d="M2.83528 0.200012H13.1647C14.726 0.200012 16 1.46153 16 3.0353V12.965C16 14.5263 14.7385 15.8003 13.1647 15.8003H2.83528C1.26151 15.7878 0 14.5263 0 12.9525V3.0353C0 1.46153 1.26151 0.200012 2.83528 0.200012Z" fill="#330000"/>
<path d="M7.73171 9.5302H5.24615L4.74654 11.0915C4.73405 11.1539 4.68409 11.1914 4.62164 11.1789H3.37262C3.29768 11.1789 3.28519 11.1414 3.29768 11.054L5.446 4.88383C5.47098 4.82138 5.48347 4.74644 5.50845 4.65901C5.53343 4.52162 5.54592 4.37173 5.54592 4.22185C5.53343 4.18438 5.5709 4.1594 5.59588 4.14691H7.31953C7.3695 4.14691 7.39448 4.17189 7.40697 4.19687L9.84256 11.054C9.86754 11.129 9.84256 11.1664 9.78011 11.1664H8.3812C8.33124 11.1789 8.29377 11.1414 8.26879 11.0915L7.73171 9.5302ZM5.63335 8.16877H7.31953C7.28206 8.03137 7.2321 7.85651 7.16965 7.69414C7.1072 7.51927 7.04475 7.31943 6.99479 7.11959C6.93234 6.90725 6.86989 6.70741 6.80743 6.50756C6.74498 6.29523 6.68253 6.10788 6.63257 5.92052C6.58261 5.73317 6.53265 5.55831 6.48269 5.39593H6.4702C6.40775 5.68321 6.33281 5.97048 6.24537 6.25776C6.14545 6.58251 6.04553 6.90725 5.93312 7.24449C5.8332 7.58173 5.73327 7.89398 5.63335 8.16877ZM11.3289 5.33348C11.1041 5.34597 10.8917 5.25854 10.7419 5.09617C10.592 4.93379 10.5045 4.70897 10.517 4.48415C10.5045 4.25932 10.592 4.04699 10.7544 3.8971C10.9167 3.74722 11.1291 3.65979 11.3414 3.65979C11.6037 3.65979 11.8035 3.73473 11.9534 3.8971C12.1033 4.05948 12.1782 4.27181 12.1782 4.48415C12.1907 4.70897 12.1033 4.93379 11.9409 5.09617C11.7786 5.25854 11.5537 5.34597 11.3289 5.33348ZM10.5795 11.1165V5.98298C10.5795 5.92052 10.6045 5.89554 10.6669 5.89554H11.9909C12.0533 5.89554 12.0783 5.93301 12.0783 5.98298V11.1165C12.0783 11.1914 12.0533 11.2289 11.9909 11.2289H10.6794C10.617 11.2164 10.5795 11.1789 10.5795 11.1165Z" fill="#FF9A00"/>
</svg>
