<svg width="16" height="16" viewBox="0 0 16 16" fill="none" xmlns="http://www.w3.org/2000/svg">
<path d="M3.46133 2.46457C2.49686 3.85053 2.61689 5.65393 3.35375 7.12687L3.40767 7.23156L3.44217 7.29794L3.46369 7.33611L3.50212 7.40485C3.52495 7.44508 3.54839 7.48527 3.57244 7.52541L3.61258 7.59153C3.63917 7.6343 3.66637 7.67684 3.69418 7.71917L3.72894 7.77283C3.76734 7.8302 3.80674 7.88709 3.84714 7.9435L3.85055 7.94783L3.87049 7.97472C3.90556 8.023 3.94146 8.07079 3.97819 8.11811L4.01873 8.16966C4.05144 8.21068 4.08463 8.25152 4.1183 8.29219L4.15634 8.33758C4.2016 8.39084 4.24791 8.4441 4.29501 8.49605L4.29776 8.49893L4.30314 8.50484C4.34918 8.55508 4.39628 8.60428 4.44416 8.65347L4.48929 8.69899C4.52637 8.73616 4.56389 8.77294 4.60185 8.80932L4.64789 8.85313C4.69853 8.90097 4.74995 8.94776 4.80217 8.9935L4.80453 8.9956L4.83142 9.01843C4.87751 9.05839 4.92421 9.09784 4.97152 9.13675L5.02951 9.18306C5.06808 9.21394 5.107 9.24437 5.14626 9.27437L5.20884 9.32173C5.25213 9.35356 5.29581 9.38491 5.33989 9.41578L5.38751 9.44963L5.40076 9.45908C5.44248 9.48794 5.48538 9.51562 5.52801 9.5433L5.58311 9.58003C5.6487 9.62135 5.71521 9.66241 5.78238 9.70203L5.83748 9.73312C5.88689 9.76163 5.93674 9.78957 5.98703 9.81695L6.0698 9.85971L6.17685 9.91534L6.20151 9.92727L6.24533 9.94839C6.3013 9.97524 6.35784 10.0014 6.41495 10.027L6.45076 10.043C6.51609 10.0716 6.58204 10.099 6.64859 10.1254L6.69687 10.1443C6.75852 10.1682 6.82075 10.1913 6.88354 10.2134L6.90702 10.2215C6.97577 10.2457 7.04529 10.2678 7.11521 10.2897L7.16546 10.3047C7.23656 10.3262 7.30701 10.3517 7.38034 10.3653C12.0444 11.2158 13.3991 7.56267 13.3991 7.56267C12.2612 9.04506 10.2416 9.43599 8.32802 9.00072C8.25547 8.98432 8.18516 8.96162 8.11445 8.9409L8.06119 8.92463C7.99222 8.90359 7.92364 8.88128 7.85549 8.85772L7.82729 8.84762C7.76653 8.82608 7.70609 8.80365 7.64599 8.78033L7.59509 8.76039C7.52923 8.73441 7.46399 8.7073 7.39936 8.67905L7.36027 8.6616C7.30489 8.63672 7.24984 8.61113 7.19511 8.58486L7.14736 8.5619C7.10446 8.54104 7.06209 8.51887 7.01958 8.49697L6.93444 8.45223C6.88276 8.4246 6.83172 8.396 6.78135 8.36644L6.72966 8.33771C6.66257 8.29798 6.5961 8.25722 6.53026 8.21544L6.47648 8.17963C6.42871 8.14894 6.38143 8.1175 6.33467 8.08531L6.28888 8.05317C6.24382 8.02142 6.19912 7.98915 6.15481 7.95635L6.09538 7.91136C6.05463 7.88031 6.01431 7.84878 5.97443 7.81677L5.92052 7.77348C5.86962 7.73185 5.81937 7.68948 5.76978 7.64637L5.75325 7.63259C5.69972 7.58536 5.64689 7.53734 5.59478 7.48855L5.55018 7.44552C5.51154 7.40901 5.47358 7.37179 5.43631 7.33388L5.39171 7.28928C5.34422 7.24074 5.29765 7.1915 5.252 7.14157L5.24504 7.13409C5.19678 7.08127 5.14954 7.02752 5.10337 6.97286L5.06624 6.92878C5.03169 6.88723 4.99771 6.8452 4.96431 6.80272L4.92692 6.75615C4.88692 6.70445 4.84765 6.65219 4.80912 6.59938C3.74678 5.15018 3.36504 3.15145 4.2142 1.51007M6.45496 1.29676C5.75758 2.30032 5.79537 3.64405 6.33952 4.70533C6.43065 4.8837 6.53369 5.05572 6.64793 5.22023C6.75236 5.37018 6.86833 5.54833 7.00699 5.66862C7.05723 5.72398 7.10984 5.77803 7.16349 5.83103L7.20468 5.87183C7.25663 5.92247 7.30989 5.97197 7.36447 6.02033L7.37103 6.02597L7.3726 6.02755C7.43321 6.08068 7.49578 6.13171 7.55928 6.18208L7.60165 6.21514C7.6654 6.26394 7.73034 6.31195 7.79698 6.35774L7.80262 6.36207L7.89183 6.42071L7.93407 6.44865C7.98165 6.47926 8.02992 6.50882 8.0789 6.53733L8.09936 6.5494C8.14169 6.57371 8.18433 6.59754 8.22727 6.62089L8.27279 6.64451L8.36226 6.69095L8.37577 6.69711C8.43708 6.72746 8.49934 6.75645 8.56258 6.78409L8.60377 6.80114C8.65441 6.82266 8.70544 6.84334 8.75686 6.86319L8.82245 6.88733C8.86915 6.90465 8.91586 6.92052 8.96308 6.93626L9.02658 6.9566C9.09361 6.97732 9.15999 7.00369 9.22978 7.01537C12.8308 7.61186 13.6621 4.83927 13.6621 4.83927C12.9128 5.91866 11.4615 6.43356 9.91286 6.03161C9.84442 6.01355 9.7764 5.99391 9.70887 5.97271L9.64761 5.9529C9.59975 5.93749 9.55221 5.92113 9.50501 5.90384L9.4406 5.87983C9.38906 5.85998 9.33785 5.83929 9.28698 5.81778L9.24565 5.80033C9.18235 5.77271 9.11971 5.74358 9.0578 5.71296L8.96361 5.66508L8.9093 5.63714C8.86907 5.61528 8.82932 5.5928 8.79005 5.56971L8.76158 5.55357C8.71288 5.52519 8.66476 5.4958 8.61728 5.46542L8.57373 5.43643L8.48032 5.37451C8.41426 5.32868 8.34935 5.28122 8.28564 5.23217L8.24183 5.19754C7.564 4.66244 7.02666 3.93095 6.77125 3.1016C6.5035 2.24142 6.56122 1.2759 7.02509 0.492205M8.97279 0.424251C8.56166 1.02928 8.52125 1.78083 8.80658 2.44909C9.10739 3.1584 9.72382 3.71476 10.4434 3.9787L10.5328 4.00953L10.5722 4.02212C10.6146 4.0355 10.6567 4.05098 10.7005 4.05912C12.6889 4.44336 13.2282 3.03889 13.3717 2.83202C12.8993 3.51221 12.1054 3.67553 11.1312 3.43901C11.0515 3.41864 10.9729 3.39434 10.8956 3.3662C10.8003 3.33239 10.7068 3.29359 10.6156 3.24997C10.4425 3.16676 10.2781 3.06648 10.1249 2.95061C9.25313 2.28917 8.71173 1.02757 9.28055 0" fill="#0868AC"/>
<path d="M8.52537 12.4181H7.97098C7.95532 12.4188 7.94029 12.4245 7.92808 12.4343C7.91588 12.4442 7.90715 12.4577 7.90316 12.4728L7.70638 13.3832L7.5096 14.2937C7.50573 14.3089 7.49705 14.3224 7.48485 14.3323C7.47265 14.3421 7.45759 14.3478 7.44191 14.3484H7.04954C6.66136 14.3484 6.70623 14.0798 6.78572 13.712L6.78809 13.7008L6.79674 13.6544L6.79832 13.6457L6.81603 13.5513L6.83505 13.4502L6.85525 13.3472L6.94472 12.9101L7.03432 12.473C7.03603 12.4663 7.03615 12.4593 7.03467 12.4526C7.03319 12.4458 7.03016 12.4395 7.02581 12.4342C7.02146 12.4289 7.01591 12.4246 7.00962 12.4218C7.00333 12.419 6.99647 12.4177 6.98959 12.418H6.42064C6.40497 12.4186 6.38991 12.4242 6.37774 12.4341C6.36557 12.444 6.35696 12.4576 6.35321 12.4728L6.23081 13.0532L6.10855 13.6337L6.10829 13.6345L6.09701 13.6885C5.95611 14.3317 5.99337 14.9453 6.75923 14.9645L6.78153 14.9649H7.98357C7.99925 14.9644 8.01431 14.9587 8.02651 14.9488C8.03871 14.939 8.0474 14.9254 8.05126 14.9102L8.31049 13.6917L8.56971 12.473C8.57613 12.4428 8.55619 12.4183 8.52537 12.4181ZM2.58847 12.4117H1.97977C1.96403 12.4123 1.9489 12.4179 1.93659 12.4277C1.92429 12.4375 1.91546 12.451 1.91142 12.4663L1.8537 12.721L1.79598 12.9758C1.78929 13.0058 1.80884 13.0304 1.83967 13.0304H2.45309C2.46877 13.0297 2.48383 13.024 2.49606 13.0142C2.50829 13.0043 2.51705 12.9908 2.52104 12.9757L2.57679 12.721L2.63255 12.4664C2.63897 12.4364 2.6193 12.4117 2.58847 12.4117ZM2.41189 13.2046H1.79834C1.78261 13.2051 1.76747 13.2108 1.75516 13.2206C1.74286 13.2304 1.73403 13.2439 1.73 13.2591L1.64381 13.6409L1.55775 14.0225L1.53374 14.1319L1.45097 14.5215L1.36832 14.9113C1.36189 14.9413 1.34864 14.9899 1.3388 15.019C1.3388 15.019 1.22415 15.3601 1.03144 15.3561L1.0073 15.3556L0.840563 15.3526C0.824911 15.353 0.809669 15.3584 0.797303 15.368C0.784938 15.3776 0.775964 15.3909 0.771692 15.406L0.708067 15.6735L0.644573 15.9408C0.637358 15.9707 0.656774 15.9954 0.68734 15.9959C0.796617 15.9972 1.04141 16 1.18951 16C1.67083 16 1.92467 15.7333 2.08721 14.9659L2.27756 14.0851L2.4561 13.259C2.46253 13.2292 2.44259 13.2046 2.41189 13.2046ZM13.7091 12.9981L13.6837 12.893L13.6586 12.7854L13.6459 12.7311C13.596 12.5374 13.4498 12.4257 13.132 12.4257L12.6375 12.4252L12.182 12.4246H11.6695C11.6538 12.4251 11.6387 12.4307 11.6265 12.4406C11.6143 12.4505 11.6057 12.464 11.6019 12.4793L11.5792 12.5863L11.5525 12.7128L11.545 12.7483L11.3142 13.8293L11.0951 14.8554C11.0886 14.8856 11.0865 14.9226 11.0902 14.9375C11.0938 14.9526 11.153 14.9649 11.1837 14.9649H11.646C11.6768 14.9649 11.7158 14.9594 11.7326 14.9526C11.7494 14.9458 11.7742 14.8853 11.7803 14.8553L11.8624 14.4487L11.9447 14.0421L11.9448 14.0414L11.9558 13.9872L12.0555 13.5202L12.1436 13.1078C12.1475 13.0926 12.1561 13.0791 12.1683 13.0692C12.1805 13.0594 12.1955 13.0537 12.2111 13.0531L13.6658 13.0524C13.6967 13.0527 13.7161 13.0281 13.7091 12.9981ZM15.5818 12.0483L15.4698 12.0487H15.0042C14.9871 12.0496 14.9705 12.0543 14.9553 12.0622C14.9402 12.0702 14.927 12.0814 14.9167 12.095L13.887 13.6034C13.8697 13.6288 13.8499 13.6252 13.8431 13.5952L13.7672 13.263C13.7632 13.2477 13.7544 13.2342 13.742 13.2243C13.7297 13.2145 13.7145 13.2089 13.6988 13.2084H13.0369C13.0061 13.2084 12.9879 13.2325 12.9963 13.262L13.2929 14.3011C13.3013 14.3308 13.3019 14.3793 13.2943 14.4092L13.1651 14.9121C13.1574 14.942 13.1763 14.9663 13.2071 14.9663H13.8613C13.8771 14.9656 13.8924 14.96 13.9049 14.9503C13.9174 14.9406 13.9265 14.9272 13.9311 14.9121L14.0604 14.4092C14.0706 14.3738 14.0867 14.3403 14.1081 14.3102L15.7796 12.0917C15.7982 12.0671 15.7881 12.047 15.7574 12.0473L15.5818 12.0483ZM10.3231 13.3495V13.349C10.3209 13.3649 10.313 13.3794 10.301 13.39C10.289 13.4006 10.2737 13.4066 10.2577 13.4069H9.41847C9.38935 13.4069 9.37466 13.3872 9.37898 13.3628L9.37977 13.3608L9.37925 13.3611L9.37964 13.3583L9.38345 13.344C9.4636 13.131 9.62679 12.9911 9.93363 12.9911C10.2792 12.991 10.3466 13.1597 10.3231 13.3495ZM10.0769 12.3809C8.99973 12.3809 8.74444 13.0347 8.60119 13.6947C8.45807 14.3674 8.47027 14.9962 9.58508 14.9962H9.7202L9.75378 14.996H9.76165L9.89546 14.9956H9.89782C10.1922 14.9945 10.4875 14.9922 10.607 14.9913C10.6226 14.9906 10.6375 14.9848 10.6496 14.9749C10.6616 14.965 10.6701 14.9514 10.6738 14.9362L10.7189 14.7157L10.7277 14.6728L10.7815 14.4096C10.7832 14.403 10.7833 14.396 10.7818 14.3893C10.7804 14.3825 10.7773 14.3763 10.773 14.3709C10.7686 14.3656 10.7631 14.3613 10.7568 14.3585C10.7505 14.3557 10.7436 14.3545 10.7367 14.3548H9.73463C9.33596 14.3548 9.21763 14.2489 9.26131 13.9375H10.8632L10.8631 13.9376L10.8641 13.9375C10.8768 13.937 10.8891 13.9328 10.8994 13.9255C10.9098 13.9182 10.9178 13.908 10.9225 13.8962L10.9263 13.8823L10.9262 13.8824C11.164 12.9852 11.0958 12.381 10.0769 12.3809ZM4.98561 13.3461L4.97039 13.3998L4.84944 13.8286L4.72849 14.2572C4.72348 14.2723 4.71398 14.2856 4.70126 14.2952C4.68854 14.3049 4.67319 14.3104 4.65725 14.3111H4.01707C3.53142 14.3111 3.4131 13.9312 3.53142 13.371C3.64962 12.798 3.88143 12.4419 4.35946 12.4058C5.01276 12.3565 5.14342 12.8159 4.98561 13.3461ZM5.42481 14.2782C5.42481 14.2782 5.72667 13.5451 5.79515 13.1219C5.88868 12.5553 5.60493 11.7333 4.50901 11.7333C3.41939 11.7333 2.94608 12.518 2.76557 13.371C2.58506 14.2303 2.82158 14.9837 3.90504 14.9775L4.75984 14.9744L5.55862 14.9715C5.57446 14.9707 5.58967 14.9651 5.60219 14.9554C5.61472 14.9457 5.62397 14.9323 5.62868 14.9172L5.76786 14.3864C5.7756 14.3565 5.75684 14.3321 5.72601 14.3318L5.5926 14.3311L5.45918 14.3303C5.43308 14.3301 5.41812 14.3131 5.42127 14.2907L5.42481 14.2782ZM10.8191 13.7874C10.8191 13.7923 10.8182 13.797 10.8164 13.8015C10.8145 13.8059 10.8118 13.81 10.8084 13.8134C10.805 13.8168 10.801 13.8196 10.7965 13.8214C10.7921 13.8233 10.7873 13.8242 10.7825 13.8242C10.7776 13.8242 10.7729 13.8233 10.7684 13.8215C10.7639 13.8196 10.7599 13.8169 10.7565 13.8135C10.7531 13.8101 10.7503 13.8061 10.7485 13.8016C10.7466 13.7972 10.7457 13.7924 10.7457 13.7876C10.7456 13.7778 10.7495 13.7685 10.7564 13.7616C10.7633 13.7547 10.7726 13.7508 10.7823 13.7508C10.7921 13.7507 10.8014 13.7546 10.8083 13.7615C10.8152 13.7684 10.8191 13.7777 10.8191 13.7874Z" fill="#131B28"/>
</svg>
