<svg width="16" height="16" viewBox="0 0 16 16" fill="none" xmlns="http://www.w3.org/2000/svg">
<path d="M2.83337 0.200012H13.1666C14.7334 0.200012 16 1.46664 16 3.03339V12.9666C16 14.5334 14.7334 15.8 13.1666 15.8H2.83337C1.26662 15.8 0 14.5334 0 12.9666V3.03339C0 1.46664 1.26662 0.200012 2.83337 0.200012Z" fill="#001E36"/>
<path d="M8.33711 11.1999H4.10817C4.03655 11.1999 4.00078 11.1596 4.00086 11.079V4.09982C3.99898 4.08638 4.00018 4.07268 4.00437 4.05981C4.00856 4.04693 4.01562 4.03523 4.02499 4.02563C4.03436 4.01603 4.04578 4.00879 4.05835 4.00449C4.07093 4.0002 4.0843 3.99896 4.09742 4.00088H5.40692C5.41713 3.9994 5.42753 4.00038 5.43731 4.00373C5.44708 4.00708 5.45597 4.01271 5.46325 4.02017C5.47054 4.02764 5.47603 4.03674 5.47929 4.04675C5.48255 4.05676 5.4835 4.06742 5.48205 4.07787V9.81515H8.56249C8.62686 9.81515 8.65192 9.84811 8.63767 9.91403L8.44443 11.101C8.44397 11.1172 8.43986 11.1331 8.43241 11.1474C8.42496 11.1617 8.41437 11.1741 8.40149 11.1835C8.38158 11.194 8.35953 11.1997 8.33711 11.2M9.39961 5.73745H10.5696C10.6348 5.73809 10.6918 5.78289 10.709 5.8474C10.7346 5.89554 10.7527 5.94744 10.7628 6.00126C10.7777 6.07204 10.7884 6.14349 10.7949 6.2156C10.802 6.29252 10.8056 6.37496 10.8057 6.46289C11.0063 6.22364 11.2482 6.0243 11.5194 5.87486C11.824 5.70619 12.1661 5.62101 12.5123 5.62756C12.5254 5.62565 12.5388 5.62689 12.5514 5.63118C12.5639 5.63548 12.5754 5.64271 12.5847 5.65231C12.5941 5.66191 12.6012 5.67362 12.6054 5.68649C12.6095 5.69937 12.6107 5.71307 12.6089 5.72651V7.05643C12.6089 7.10776 12.5731 7.1334 12.5015 7.13336C12.0692 7.10596 11.6367 7.1851 11.2404 7.36414C11.1057 7.42387 10.9836 7.50971 10.8808 7.61694V11.1011C10.8808 11.167 10.8522 11.2 10.7949 11.2H9.49618C9.4816 11.2021 9.46673 11.2008 9.45276 11.196C9.43878 11.1912 9.42609 11.1832 9.41567 11.1725C9.40526 11.1619 9.39741 11.1489 9.39276 11.1346C9.38811 11.1202 9.38677 11.105 9.38886 11.0901V7.30916C9.38886 7.21713 9.38828 7.12205 9.38711 7.02392L9.38492 6.87454C9.38451 6.84924 9.38403 6.82377 9.38349 6.79812C9.38076 6.66449 9.37705 6.53087 9.37236 6.39729L9.36736 6.26507C9.36262 6.11407 9.34829 5.96354 9.32449 5.81444C9.32197 5.80448 9.32187 5.79404 9.32419 5.78403C9.32651 5.77401 9.33119 5.76473 9.33781 5.75699C9.34443 5.74925 9.3528 5.74329 9.36219 5.73961C9.37158 5.73594 9.3817 5.73467 9.39167 5.73591L9.39961 5.73745Z" fill="#31A8FF"/>
</svg>
