<svg width="16" height="16" viewBox="0 0 16 16" fill="none" xmlns="http://www.w3.org/2000/svg">
<path d="M1.9402 0.674118L10.5872 0.0355193C11.6493 -0.0556256 11.9222 0.0058388 12.59 0.491303L15.3502 2.43585C15.8056 2.77022 15.9571 2.86142 15.9571 3.22553V13.8899C15.9571 14.5582 15.7144 14.9536 14.8648 15.014L4.82341 15.6219C4.18581 15.6521 3.88217 15.561 3.54826 15.1354L1.51567 12.4923C1.15109 12.0058 1 11.6417 1 11.2161V1.73678C1 1.19037 1.24276 0.73459 1.9402 0.674118Z" fill="white"/>
<path d="M10.5872 0.0355193L1.9402 0.674118C1.24276 0.73459 1 1.19037 1 1.73678V11.2161C1 11.6417 1.15103 12.0058 1.51567 12.4923L3.54826 15.1354C3.88217 15.561 4.18581 15.6521 4.82341 15.6219L14.8648 15.014C15.7138 14.9536 15.9571 14.5582 15.9571 13.8899V3.22553C15.9571 2.88018 15.8206 2.78068 15.419 2.48586L15.3498 2.43585L12.59 0.491303C11.9222 0.0058388 11.6494 -0.0556256 10.5872 0.0355193ZM5.05052 3.05102C4.23062 3.10623 4.04465 3.11873 3.57899 2.74001L2.39499 1.79824C2.27463 1.67636 2.33504 1.52422 2.63821 1.49401L10.9508 0.886673C11.6488 0.825734 12.0124 1.06896 12.2853 1.28152L13.711 2.31449C13.7719 2.34517 13.9235 2.52699 13.7412 2.52699L5.15679 3.04371L5.05052 3.05102ZM4.09466 13.7988V4.74549C4.09466 4.35012 4.21601 4.16783 4.5796 4.1371L14.4392 3.55991C14.7736 3.5297 14.9247 3.7422 14.9247 4.1371V13.1299C14.9247 13.5253 14.8637 13.8596 14.3179 13.8899L4.88278 14.4368C4.3369 14.467 4.09466 14.2853 4.09466 13.7988ZM13.4084 5.2309C13.4688 5.50439 13.4084 5.77789 13.1349 5.80914L12.6802 5.89924V12.5834C12.2853 12.7959 11.9217 12.9173 11.618 12.9173C11.1326 12.9173 11.0112 12.7652 10.6476 12.3099L7.6738 7.63123V12.1579L8.61446 12.3709C8.61446 12.3709 8.61446 12.9179 7.85556 12.9179L5.76308 13.0392C5.70215 12.9173 5.76308 12.6136 5.97517 12.5532L6.52151 12.4016V6.41654L5.76314 6.35508C5.70215 6.08164 5.8537 5.68674 6.27881 5.65601L8.5239 5.50498L11.618 10.2441V6.05144L10.8294 5.96076C10.7685 5.6258 11.0112 5.38257 11.3143 5.35289L13.4084 5.2309Z" fill="black"/>
</svg>
