<svg width="16" height="16" viewBox="0 0 16 16" fill="none" xmlns="http://www.w3.org/2000/svg">
<path d="M9.67446 8.74286L8.55846 0.571472H8.47504C6.52674 0.574782 4.659 1.34927 3.28006 2.72563C1.90112 4.102 1.12316 5.9683 1.11621 7.91658V8.00001L9.67446 8.74286Z" fill="#ED6C47"/>
<path d="M8.64153 0.571472H8.55811V8.00001L12.2787 9.48572L15.9998 8.00001V7.91658C15.9928 5.9684 15.215 4.10219 13.8361 2.72584C12.4573 1.34949 10.5897 0.574933 8.64153 0.571472Z" fill="#FF8F6B"/>
<path d="M16.0001 8V8.08171C15.9929 10.0303 15.2147 11.8967 13.8357 13.2733C12.4566 14.6499 10.5887 15.4248 8.64018 15.4285H8.47618C6.52772 15.4245 4.66003 14.6496 3.28102 13.273C1.90202 11.8965 1.12375 10.0302 1.11621 8.08171V8H16.0001Z" fill="#D35230"/>
<path opacity="0.1" d="M8.93047 4.22227V12.1485C8.92944 12.2834 8.88866 12.4149 8.81325 12.5267C8.73783 12.6385 8.63112 12.7256 8.50647 12.7771C8.4249 12.8108 8.33759 12.8285 8.24933 12.8291H2.87278C2.76843 12.7095 2.6691 12.5856 2.57507 12.4577C1.62742 11.1959 1.11543 9.66029 1.11622 8.08225V7.91883C1.11425 6.49534 1.53097 5.10271 2.3145 3.91427C2.39585 3.78669 2.48279 3.66276 2.57507 3.54285H8.24933C8.42931 3.54404 8.60161 3.61595 8.72905 3.74306C8.85648 3.87017 8.92882 4.04229 8.93047 4.22227Z" fill="black"/>
<path opacity="0.2" d="M8.55847 4.59424V12.5205C8.5577 12.6084 8.54005 12.6953 8.50647 12.7765C8.45491 12.901 8.3678 13.0076 8.256 13.0829C8.14421 13.1582 8.01269 13.1989 7.8779 13.1999H3.21164C3.09392 13.0803 2.98097 12.9565 2.87278 12.8285C2.76843 12.7089 2.6691 12.585 2.57507 12.4571C1.62742 11.1953 1.11543 9.65969 1.11622 8.08166V7.91823C1.11436 6.49494 1.53108 5.10252 2.3145 3.91425H7.87733C8.05741 3.91544 8.2298 3.98743 8.35725 4.11466C8.48469 4.2419 8.55697 4.41416 8.55847 4.59424Z" fill="black"/>
<path opacity="0.2" d="M8.55847 4.59424V11.7776C8.55682 11.9576 8.48448 12.1297 8.35705 12.2569C8.22962 12.384 8.05732 12.4559 7.87733 12.4571H2.57507C1.62742 11.1953 1.11543 9.65969 1.11622 8.08166V7.91823C1.11436 6.49494 1.53108 5.10252 2.3145 3.91425H7.87733C8.05741 3.91544 8.2298 3.98743 8.35725 4.11466C8.48469 4.2419 8.55697 4.41416 8.55847 4.59424Z" fill="black"/>
<path opacity="0.2" d="M8.18647 4.59424V11.7776C8.18483 11.9576 8.11248 12.1297 7.98505 12.2569C7.85762 12.384 7.68532 12.4559 7.50533 12.4571H2.57507C1.62742 11.1953 1.11543 9.65969 1.11622 8.08166V7.91823C1.11436 6.49494 1.53108 5.10252 2.3145 3.91425H7.50533C7.68541 3.91544 7.8578 3.98743 7.98525 4.11466C8.1127 4.2419 8.18497 4.41416 8.18647 4.59424Z" fill="black"/>
<path d="M0.682283 3.91425H7.50397C7.68467 3.9141 7.85804 3.9857 7.98597 4.11331C8.11391 4.24093 8.18595 4.41412 8.18625 4.59482V11.4051C8.18595 11.5858 8.11391 11.759 7.98597 11.8866C7.85804 12.0142 7.68467 12.0858 7.50397 12.0856H0.682283C0.592744 12.0859 0.504028 12.0686 0.421225 12.0345C0.338423 12.0004 0.263165 11.9503 0.199772 11.8871C0.136378 11.8238 0.0860975 11.7487 0.0518153 11.666C0.0175331 11.5833 -7.55056e-05 11.4946 2.43357e-07 11.4051V4.59482C-7.55056e-05 4.50528 0.0175331 4.41661 0.0518153 4.33389C0.0860975 4.25117 0.136378 4.17604 0.199772 4.11281C0.263165 4.04957 0.338423 3.99948 0.421225 3.96541C0.504028 3.93133 0.592744 3.91395 0.682283 3.91425Z" fill="url(#paint0_linear_25_199)"/>
<path d="M4.16686 5.73033C4.61086 5.70111 5.05089 5.82984 5.40914 6.09376C5.55632 6.22478 5.67172 6.38761 5.74657 6.56989C5.82142 6.75217 5.85376 6.94911 5.84114 7.14575C5.84597 7.42274 5.77206 7.69541 5.62799 7.93203C5.48184 8.1646 5.27174 8.3501 5.02285 8.46632C4.73832 8.59842 4.42735 8.66371 4.11371 8.65717H3.24915V10.2572H2.36572V5.73033H4.16686ZM3.24858 7.96575H4.00914C4.25026 7.98287 4.48936 7.91157 4.68171 7.76518C4.76032 7.6902 4.82153 7.59889 4.86102 7.4977C4.90051 7.3965 4.91733 7.28787 4.91028 7.17947C4.91028 6.6808 4.61981 6.43128 4.03886 6.4309H3.24858V7.96575Z" fill="white"/>
<defs>
<linearGradient id="paint0_linear_25_199" x1="1.42514" y1="3.37939" x2="6.76111" y2="12.6205" gradientUnits="userSpaceOnUse">
<stop stop-color="#CA4C28"/>
<stop offset="0.5" stop-color="#C5401E"/>
<stop offset="1" stop-color="#B62F14"/>
</linearGradient>
</defs>
</svg>
