<svg width="16" height="16" viewBox="0 0 16 16" fill="none" xmlns="http://www.w3.org/2000/svg">
<path d="M12.25 0H3.75C1.67893 0 0 1.67893 0 3.75V12.25C0 14.3211 1.67893 16 3.75 16H12.25C14.3211 16 16 14.3211 16 12.25V3.75C16 1.67893 14.3211 0 12.25 0Z" fill="#00005B"/>
<path d="M3.375 11.4175V4.55081C3.375 4.50419 3.395 4.4775 3.44169 4.4775C3.555 4.4775 3.66169 4.4775 3.815 4.47081C3.975 4.46419 4.14169 4.46419 4.32169 4.4575C4.50169 4.45081 4.695 4.45081 4.90169 4.44419C5.10831 4.4375 5.30831 4.4375 5.50831 4.4375C6.055 4.4375 6.50831 4.50419 6.88169 4.64419C7.21633 4.75785 7.52148 4.94457 7.775 5.19081C7.98977 5.40638 8.15574 5.66555 8.26169 5.95081C8.36169 6.23081 8.415 6.5175 8.415 6.8175C8.415 7.39083 8.28167 7.86417 8.015 8.2375C7.74831 8.61081 7.375 8.89081 6.94169 9.05081C6.48831 9.2175 5.98831 9.2775 5.44169 9.2775C5.28169 9.2775 5.175 9.2775 5.10831 9.27081C5.04169 9.26419 4.94831 9.26419 4.82169 9.26419V11.4042C4.82831 11.4508 4.795 11.4908 4.74831 11.4975H3.455C3.40169 11.4975 3.375 11.4708 3.375 11.4108V11.4175ZM4.82831 5.77081V8.01081C4.92169 8.0175 5.00831 8.02419 5.08831 8.02419H5.44169C5.70169 8.02419 5.96169 7.98419 6.20831 7.90419C6.42169 7.84419 6.60831 7.7175 6.755 7.55081C6.895 7.38419 6.96169 7.1575 6.96169 6.86419C6.96795 6.65584 6.91475 6.45003 6.80831 6.27081C6.695 6.0975 6.535 5.96419 6.34169 5.89081C6.095 5.79081 5.82831 5.75081 5.555 5.7575C5.38169 5.7575 5.22831 5.7575 5.10169 5.76419C4.96831 5.7575 4.875 5.76419 4.82831 5.77081ZM9.375 6.16419H10.5417C10.6084 6.16419 10.6617 6.21081 10.6817 6.27081C10.7017 6.32419 10.715 6.3775 10.7217 6.4375C10.735 6.50419 10.7484 6.5775 10.755 6.64419C10.7617 6.7175 10.7684 6.7975 10.7684 6.88419C10.9685 6.65049 11.2104 6.45605 11.4817 6.31081C11.7884 6.1375 12.1417 6.05081 12.495 6.05081C12.5417 6.04419 12.5817 6.0775 12.5884 6.12419V7.45081C12.5884 7.50419 12.555 7.52419 12.4817 7.52419C12.2417 7.5175 11.995 7.5375 11.7617 7.59081C11.5684 7.63081 11.3817 7.69081 11.2017 7.77081C11.075 7.83081 10.955 7.91081 10.8617 8.0175V11.4175C10.8617 11.4842 10.835 11.5108 10.775 11.5108H9.46169C9.40837 11.5175 9.36169 11.4842 9.355 11.4308V7.71081C9.355 7.55081 9.355 7.38419 9.34838 7.21081C9.34169 7.0375 9.34169 6.86419 9.335 6.69081C9.335 6.5375 9.32169 6.39081 9.30838 6.2375C9.30169 6.20419 9.32169 6.17081 9.355 6.16419C9.355 6.1575 9.36837 6.1575 9.375 6.16419Z" fill="#9999FF"/>
</svg>
