<svg width="16" height="16" viewBox="0 0 16 16" fill="none" xmlns="http://www.w3.org/2000/svg">
<path d="M15.3176 0.571232H4.40244C4.31294 0.571006 4.22429 0.588448 4.14155 0.622557C4.05881 0.656666 3.98361 0.706771 3.92028 0.77C3.85695 0.833228 3.80671 0.908337 3.77247 0.991019C3.73822 1.0737 3.72063 1.16233 3.7207 1.25182V4.28562L10.046 6.14282L15.9999 4.28562V1.25182C16 1.16228 15.9824 1.07361 15.9481 0.990886C15.9138 0.908167 15.8635 0.833033 15.8001 0.769797C15.7367 0.70656 15.6615 0.656467 15.5787 0.622392C15.4959 0.588317 15.4071 0.570931 15.3176 0.571232Z" fill="#41A5EE"/>
<path d="M15.9999 4.28558H3.7207V7.99998L10.046 9.11429L15.9999 7.99998V4.28558Z" fill="#2B7CD3"/>
<path d="M3.7207 8V11.7144L9.67402 12.4573L15.9999 11.7144V8H3.7207Z" fill="#185ABD"/>
<path d="M4.40244 15.4288H15.317C15.4066 15.4292 15.4954 15.4119 15.5783 15.3778C15.6611 15.3438 15.7365 15.2937 15.7999 15.2304C15.8634 15.1672 15.9137 15.092 15.948 15.0093C15.9824 14.9265 16 14.8378 15.9999 14.7482V11.7144H3.7207V14.7482C3.72063 14.8377 3.73822 14.9263 3.77247 15.009C3.80671 15.0917 3.85695 15.1668 3.92028 15.23C3.98361 15.2933 4.05881 15.3434 4.14155 15.3775C4.22429 15.4116 4.31294 15.429 4.40244 15.4288Z" fill="#103F91"/>
<path opacity="0.1" d="M8.24769 3.54272H3.7207V12.8287H8.24769C8.42808 12.8278 8.60084 12.7559 8.72856 12.6285C8.85627 12.5011 8.92865 12.3285 8.93 12.1481V4.22332C8.92865 4.04293 8.85627 3.87035 8.72856 3.74295C8.60084 3.61556 8.42808 3.54362 8.24769 3.54272Z" fill="black"/>
<path opacity="0.2" d="M7.87568 3.91412H3.7207V13.2001H7.87568C8.05607 13.1992 8.22883 13.1273 8.35655 12.9999C8.48426 12.8725 8.55663 12.6999 8.55798 12.5195V4.59471C8.55663 4.41433 8.48426 4.24175 8.35655 4.11435C8.22883 3.98696 8.05607 3.91502 7.87568 3.91412Z" fill="black"/>
<path opacity="0.2" d="M7.87568 3.91412H3.7207V12.4572H7.87568C8.05607 12.4563 8.22883 12.3844 8.35655 12.257C8.48426 12.1296 8.55663 11.957 8.55798 11.7766V4.59471C8.55663 4.41433 8.48426 4.24175 8.35655 4.11435C8.22883 3.98696 8.05607 3.91502 7.87568 3.91412Z" fill="black"/>
<path opacity="0.2" d="M7.50367 3.91412H3.7207V12.4572H7.50367C7.68406 12.4563 7.85682 12.3844 7.98454 12.257C8.11225 12.1296 8.18462 11.957 8.18597 11.7766V4.59471C8.18462 4.41433 8.11225 4.24175 7.98454 4.11435C7.85682 3.98696 7.68406 3.91502 7.50367 3.91412Z" fill="black"/>
<path d="M0.681817 3.91413H7.50373C7.68444 3.91398 7.85781 3.98558 7.98575 4.1132C8.11369 4.24082 8.18573 4.41401 8.18603 4.59472V11.4052C8.18573 11.5859 8.11369 11.7591 7.98575 11.8867C7.85781 12.0143 7.68444 12.0859 7.50373 12.0858H0.681817C0.592276 12.0861 0.503556 12.0687 0.420751 12.0346C0.337946 12.0006 0.262686 11.9505 0.19929 11.8872C0.135895 11.824 0.0856121 11.7489 0.0513288 11.6661C0.0170454 11.5834 -0.000563789 11.4947 -0.000488038 11.4052V4.59472C-0.000563789 4.50518 0.0170454 4.4165 0.0513288 4.33378C0.0856121 4.25106 0.135895 4.17593 0.19929 4.11269C0.262686 4.04946 0.337946 3.99936 0.420751 3.96529C0.503556 3.93121 0.592276 3.91383 0.681817 3.91413Z" fill="url(#paint0_linear_25_187)"/>
<path d="M2.80008 9.13602C2.81341 9.24116 2.82218 9.33278 2.82637 9.41088H2.84237C2.84808 9.33659 2.86046 9.24707 2.87951 9.1423C2.90808 8.98515 2.91494 8.94915 2.93037 8.87658L3.64753 5.78678H4.57556L5.31844 8.83029C5.36134 9.01863 5.39226 9.20949 5.41101 9.40174H5.42359C5.43784 9.21461 5.4636 9.02854 5.50073 8.84458L6.09446 5.78278H6.93849L5.89617 10.2103H4.90928L4.20241 7.2811C4.18184 7.19653 4.1586 7.08643 4.13269 6.95081C4.10679 6.81519 4.09078 6.71614 4.08469 6.65366H4.07269C4.06469 6.72566 4.04869 6.83252 4.02469 6.97424C4.00069 7.11596 3.98164 7.2211 3.96754 7.28968L3.30295 10.212H2.2995L1.25146 5.78678H2.10863L2.75494 8.88287C2.77378 8.96653 2.78884 9.051 2.80008 9.13602Z" fill="white"/>
<defs>
<linearGradient id="paint0_linear_25_187" x1="1.4247" y1="3.37925" x2="6.76085" y2="12.6207" gradientUnits="userSpaceOnUse">
<stop stop-color="#2368C4"/>
<stop offset="0.5" stop-color="#1A5DBE"/>
<stop offset="1" stop-color="#1146AC"/>
</linearGradient>
</defs>
</svg>
