<svg width="430" height="430" viewBox="0 0 430 430" fill="none" xmlns="http://www.w3.org/2000/svg">
<g clip-path="url(#clip0_131_953)">
<circle cx="215" cy="215" r="214" stroke="#FFB84F" stroke-width="2"/>
<path d="M294.88 302.89H248.14V264.32H182.78V302.89H136.04V203.33C136.04 191.93 137.94 181.48 141.74 171.98C145.667 162.48 151.113 154.31 158.08 147.47C165.047 140.63 173.407 135.31 183.16 131.51C192.913 127.71 203.68 125.81 215.46 125.81C227.24 125.81 238.007 127.71 247.76 131.51C257.513 135.31 265.873 140.63 272.84 147.47C279.807 154.31 285.19 162.48 288.99 171.98C292.917 181.48 294.88 191.93 294.88 203.33V302.89ZM248.14 225.18V199.53C248.14 194.97 247.38 190.663 245.86 186.61C244.467 182.43 242.377 178.757 239.59 175.59C236.93 172.297 233.573 169.7 229.52 167.8C225.467 165.9 220.78 164.95 215.46 164.95C210.14 164.95 205.453 165.9 201.4 167.8C197.347 169.7 193.927 172.297 191.14 175.59C188.48 178.757 186.39 182.43 184.87 186.61C183.477 190.663 182.78 194.97 182.78 199.53V225.18H248.14Z" fill="#FFB84F"/>
</g>
<defs>
<clipPath id="clip0_131_953">
<rect width="430" height="430" fill="white"/>
</clipPath>
</defs>
</svg>
