<svg width="430" height="430" viewBox="0 0 430 430" fill="none" xmlns="http://www.w3.org/2000/svg">
<g clip-path="url(#clip0_131_944)">
<circle cx="215" cy="215" r="214" stroke="#47B172" stroke-width="2"/>
<path d="M294.88 229.17C294.88 240.57 292.917 251.02 288.99 260.52C285.19 270.02 279.807 278.19 272.84 285.03C265.873 291.87 257.513 297.19 247.76 300.99C238.007 304.79 227.24 306.69 215.46 306.69C203.68 306.69 192.913 304.79 183.16 300.99C173.407 297.19 165.047 291.87 158.08 285.03C151.113 278.19 145.667 270.02 141.74 260.52C137.94 251.02 136.04 240.57 136.04 229.17V129.61H182.78V232.97C182.78 237.53 183.477 241.9 184.87 246.08C186.39 250.133 188.48 253.807 191.14 257.1C193.927 260.267 197.347 262.8 201.4 264.7C205.453 266.6 210.14 267.55 215.46 267.55C220.78 267.55 225.467 266.6 229.52 264.7C233.573 262.8 236.93 260.267 239.59 257.1C242.377 253.807 244.467 250.133 245.86 246.08C247.38 241.9 248.14 237.53 248.14 232.97V129.61H294.88V229.17Z" fill="#47B172"/>
</g>
<defs>
<clipPath id="clip0_131_944">
<rect width="430" height="430" fill="white"/>
</clipPath>
</defs>
</svg>
