<svg width="430" height="430" viewBox="0 0 430 430" fill="none" xmlns="http://www.w3.org/2000/svg">
<g clip-path="url(#clip0_131_947)">
<circle cx="215" cy="215" r="214" stroke="#AAA8EF" stroke-width="2"/>
<path d="M129.324 172.55C129.324 165.583 130.337 159.25 132.364 153.55C134.391 147.723 137.304 142.783 141.104 138.73C144.904 134.55 149.401 131.383 154.594 129.23C159.914 126.95 165.804 125.81 172.264 125.81C177.584 125.81 182.651 126.697 187.464 128.47C192.277 130.117 196.711 132.46 200.764 135.5C204.944 138.54 208.554 142.277 211.594 146.71C214.761 151.017 217.294 155.83 219.194 161.15L252.444 256.53H253.964V129.61H300.704V260.14C300.704 267.233 299.691 273.63 297.664 279.33C295.637 285.03 292.724 289.907 288.924 293.96C285.124 298.14 280.564 301.307 275.244 303.46C270.051 305.74 264.224 306.88 257.764 306.88C252.444 306.88 247.377 305.993 242.564 304.22C237.751 302.573 233.254 300.23 229.074 297.19C225.021 294.15 221.411 290.413 218.244 285.98C215.204 281.673 212.734 276.86 210.834 271.54L177.584 176.16H176.064V303.08H129.324V172.55Z" fill="#AAA8EF"/>
</g>
<defs>
<clipPath id="clip0_131_947">
<rect width="430" height="430" fill="white"/>
</clipPath>
</defs>
</svg>
